<svg xmlns="http://www.w3.org/2000/svg" viewBox="0 0 21.87 39.76"><g id="Layer_2" data-name="Layer 2"><g id="Layer_1-2" data-name="Layer 1"><path d="M17.71,28.63a6.72,6.72,0,0,1-4-1.56,6.53,6.53,0,0,1-2.29-3.87,19.27,19.27,0,0,1,0-2.28V0h-.94V20.62a19.55,19.55,0,0,1-.05,2.54,5.6,5.6,0,0,1-.83,2.22,6.75,6.75,0,0,1-3.21,2.76,6.45,6.45,0,0,1-2.21.49L0,28.82l4.17.2a6.89,6.89,0,0,1,6.57,6.57l.2,4.17.19-4.17A6.9,6.9,0,0,1,17.71,29l4.16-.2Zm-6.77,3a8.39,8.39,0,0,0-2.81-2.81A8.27,8.27,0,0,0,10.94,26a8.16,8.16,0,0,0,2.8,2.8A8.27,8.27,0,0,0,10.94,31.63Z"/></g></g></svg>