<?xml version="1.0" encoding="utf-8"?>
<!-- Generator: Adobe Illustrator 24.1.1, SVG Export Plug-In . SVG Version: 6.00 Build 0)  -->
<svg version="1.1" id="Layer_1" xmlns="http://www.w3.org/2000/svg" xmlns:xlink="http://www.w3.org/1999/xlink" x="0px" y="0px"
	 viewBox="0 0 17.6 12.8" style="enable-background:new 0 0 17.6 12.8;" xml:space="preserve">
<style type="text/css">
	.st0{fill:currentColor}
</style>
<g id="Layer_2_1_">
	<g id="Layer_1-2">
		<polygon class="st0" points="10.8,3.7 11.2,6.1 13.6,6.4 11.2,6.7 10.8,9.2 10.5,6.7 0,6.4 10.5,6.1 		"/>
		<path class="st0" d="M11.1,0c-2.8,0-5.3,1.9-6,4.6h0.3c0.8-2.5,3.1-4.3,5.7-4.3c3.4,0,6.1,2.7,6.1,6.1s-2.7,6.1-6.1,6.1
			c-2.7,0-5.1-1.7-5.9-4.3H5c1,3.4,4.5,5.4,7.9,4.4s5.4-4.5,4.4-7.9C16.5,1.9,14,0,11.1,0z"/>
	</g>
</g>
</svg>
